<svg width="60" height="64" viewBox="0 0 60 64" fill="none" xmlns="http://www.w3.org/2000/svg">
<path d="M59.7607 48.6041C59.6347 48.3425 59.4075 48.1435 59.1315 48.0532L51.9019 45.688C52.3967 45.3795 52.5478 44.7283 52.2394 44.2335C52.108 44.0228 51.9067 43.8651 51.6706 43.7881L44.48 41.3913C44.9586 41.058 45.0763 40.3999 44.743 39.9215C44.6 39.7163 44.3888 39.5684 44.1471 39.5044L33.4426 36.5849L41.4055 19.0048C43.3954 14.9972 43.2476 10.2597 41.0118 6.384C38.9666 2.70147 35.1915 0.309338 30.9883 0.0324051C30.6774 0.0109384 30.3159 5.08354e-06 29.9998 5.08354e-06C28.7751 -0.00106158 27.5562 0.165738 26.3768 0.495872C22.793 1.5028 19.8494 4.0636 18.356 7.47347C16.7331 11.0817 16.8107 15.2269 18.5675 18.7719L26.5735 36.5803L15.8524 39.5043C15.2887 39.6537 14.953 40.2317 15.1023 40.7955C15.1664 41.0372 15.3142 41.2484 15.5194 41.3913L8.32896 43.788C7.7743 43.9691 7.4715 44.5653 7.65243 45.12C7.72363 45.338 7.86376 45.5269 8.05176 45.6583L0.862297 48.0547C0.303497 48.2409 0.00149751 48.8449 0.187897 49.4037C0.279097 49.6775 0.477364 49.9025 0.737364 50.0276L29.5374 63.8943C29.8296 64.0352 30.1702 64.0352 30.4623 63.8943L59.2623 50.0276C59.793 49.7721 60.0162 49.1348 59.7607 48.6041ZM20.4956 17.8599C19.0094 14.8764 18.939 11.3836 20.304 8.34267C21.539 5.5152 23.9763 3.39014 26.9456 2.552C27.9398 2.2736 28.9674 2.13267 29.9998 2.1332C30.2691 2.1332 30.5774 2.142 30.8424 2.16027C34.3332 2.3944 37.4663 4.38494 39.1612 7.44574C41.0454 10.7159 41.1644 14.7129 39.4784 18.0895L30.0035 39.0067L20.4956 17.8599ZM27.4591 38.5501L29.0268 42.0375C29.1988 42.4199 29.5788 42.666 29.9982 42.6667H29.9998C30.4187 42.6668 30.7988 42.4217 30.9716 42.0401L32.5511 38.5531L40.7607 40.7923L29.9998 45.7584L19.2388 40.7923L27.4591 38.5501ZM18.3062 42.7113L29.553 47.9021C29.8366 48.0327 30.1631 48.0327 30.4467 47.9021L41.6935 42.7113L48.4046 44.948L29.9999 53.2303L11.5952 44.948L18.3062 42.7113ZM29.9998 61.7495L4.03256 49.2469L10.878 46.9651L29.5622 55.3729C29.8404 55.498 30.1588 55.498 30.4372 55.3729L49.0476 46.9983L55.9476 49.2557L29.9998 61.7495Z" fill="#262627"/>
<path d="M20.4956 17.8599C19.0094 14.8764 18.939 11.3836 20.304 8.34267C21.539 5.5152 23.9763 3.39014 26.9456 2.552C27.9398 2.2736 28.9674 2.13267 29.9998 2.1332C30.2691 2.1332 30.5774 2.142 30.8424 2.16027C34.3332 2.3944 37.4663 4.38494 39.1612 7.44574C41.0454 10.7159 41.1644 14.7129 39.4784 18.0895L30.0035 39.0067L20.4956 17.8599Z" fill="#262627"/>
<path d="M59.7607 48.6041C59.6347 48.3425 59.4075 48.1435 59.1315 48.0532L51.9019 45.688C52.3967 45.3795 52.5478 44.7283 52.2394 44.2335C52.108 44.0228 51.9067 43.8651 51.6706 43.7881L44.48 41.3913C44.9586 41.058 45.0763 40.3999 44.743 39.9215C44.6 39.7163 44.3888 39.5684 44.1471 39.5044L33.4426 36.5849L41.4055 19.0048C43.3954 14.9972 43.2476 10.2597 41.0118 6.384C38.9666 2.70147 35.1915 0.309338 30.9883 0.0324051C30.6774 0.0109384 30.3159 5.08354e-06 29.9998 5.08354e-06C28.7751 -0.00106158 27.5562 0.165738 26.3768 0.495872C22.793 1.5028 19.8494 4.0636 18.356 7.47347C16.7331 11.0817 16.8107 15.2269 18.5675 18.7719L26.5735 36.5803L15.8524 39.5043C15.2887 39.6537 14.953 40.2317 15.1023 40.7955C15.1664 41.0372 15.3142 41.2484 15.5194 41.3913L8.32896 43.788C7.7743 43.9691 7.4715 44.5653 7.65243 45.12C7.72363 45.338 7.86376 45.5269 8.05176 45.6583L0.862297 48.0547C0.303497 48.2409 0.00149751 48.8449 0.187897 49.4037C0.279097 49.6775 0.477364 49.9025 0.737364 50.0276L29.5374 63.8943C29.8296 64.0352 30.1702 64.0352 30.4623 63.8943L59.2623 50.0276C59.793 49.7721 60.0162 49.1348 59.7607 48.6041ZM20.4956 17.8599C19.0094 14.8764 18.939 11.3836 20.304 8.34267C21.539 5.5152 23.9763 3.39014 26.9456 2.552C27.9398 2.2736 28.9674 2.13267 29.9998 2.1332C30.2691 2.1332 30.5774 2.142 30.8424 2.16027C34.3332 2.3944 37.4663 4.38494 39.1612 7.44574C41.0454 10.7159 41.1644 14.7129 39.4784 18.0895L30.0035 39.0067L20.4956 17.8599ZM27.4591 38.5501L29.0268 42.0375C29.1988 42.4199 29.5788 42.666 29.9982 42.6667H29.9998C30.4187 42.6668 30.7988 42.4217 30.9716 42.0401L32.5511 38.5531L40.7607 40.7923L29.9998 45.7584L19.2388 40.7923L27.4591 38.5501ZM18.3062 42.7113L29.553 47.9021C29.8366 48.0327 30.1631 48.0327 30.4467 47.9021L41.6935 42.7113L48.4046 44.948L29.9999 53.2303L11.5952 44.948L18.3062 42.7113ZM29.9998 61.7495L4.03256 49.2469L10.878 46.9651L29.5622 55.3729C29.8404 55.498 30.1588 55.498 30.4372 55.3729L49.0476 46.9983L55.9476 49.2557L29.9998 61.7495Z" fill="#BEBEBE"/>
<path d="M29.9999 5.33325C25.8761 5.33325 22.5332 8.67619 22.5332 12.7999C22.5332 16.9237 25.8761 20.2666 29.9999 20.2666C34.1217 20.2619 37.4619 16.9218 37.4665 12.7999C37.4665 8.67619 34.1236 5.33325 29.9999 5.33325ZM29.9999 18.1333C27.0544 18.1333 24.6665 15.7454 24.6665 12.7999C24.6665 9.85445 27.0544 7.46659 29.9999 7.46659C32.9453 7.46659 35.3332 9.85445 35.3332 12.7999C35.3297 15.7441 32.944 18.1298 29.9999 18.1333Z" fill="#D7592A"/>
</svg>
